<svg width="387" height="125" viewBox="0 0 387 125" fill="none" xmlns="http://www.w3.org/2000/svg">
<mask id="mask0_6247_108797" style="mask-type:luminance" maskUnits="userSpaceOnUse" x="0" y="0" width="387" height="125">
<path d="M0 0H387V124.019H0V0Z" fill="white"/>
</mask>
<g mask="url(#mask0_6247_108797)">
<mask id="mask1_6247_108797" style="mask-type:luminance" maskUnits="userSpaceOnUse" x="0" y="0" width="387" height="125">
<path d="M0 0H387V124.019H0V0Z" fill="white"/>
</mask>
<g mask="url(#mask1_6247_108797)">
<path d="M326.719 0.88C327.386 0.88053 328.025 1.14574 328.496 1.61733C328.967 2.08893 329.232 2.72833 329.232 3.395V88.072H324.206V3.395C324.206 2.72833 324.471 2.08893 324.942 1.61733C325.413 1.14574 326.052 0.88053 326.719 0.88ZM2.513 0C3.17986 0.000529672 3.81925 0.265672 4.29079 0.737211C4.76233 1.20875 5.02747 1.84814 5.028 2.515V123.302H1.98984e-07V2.515C-0.000131149 2.18486 0.0647653 1.85792 0.190984 1.55286C0.317203 1.24779 0.502273 0.97058 0.735627 0.737041C0.96898 0.503501 1.24605 0.318211 1.55101 0.191749C1.85597 0.0652878 2.18286 0.000131296 2.513 0ZM381.967 1.157H386.994V85.547C386.993 86.2134 386.729 86.8524 386.257 87.3237C385.786 87.7951 385.147 88.0602 384.481 88.061C383.814 88.0602 383.175 87.7949 382.704 87.3234C382.233 86.8519 381.968 86.2127 381.967 85.546V1.157ZM17.81 1.094L10.434 20.515H23.053L24.227 17.484C25.4124 14.2626 27.5573 11.4822 30.3725 9.51812C33.1876 7.55399 36.5374 6.50058 39.97 6.5C43.4022 6.50062 46.7516 7.55409 49.5663 9.51826C52.3809 11.4824 54.5253 14.2627 55.71 17.484L56.874 20.536H69.491L62.117 1.096H17.808L17.81 1.094ZM75.347 1.094L82.696 20.511L97.603 20.571L104.992 1.092L75.347 1.094ZM175.392 1.094V20.279H187.259V3.216C187.258 2.49226 187.384 1.77396 187.632 1.094H175.392ZM198.428 1.095L206.849 15.667C207.972 17.4712 209.652 18.8606 211.635 19.6249C213.618 20.3892 215.796 20.4868 217.839 19.903C219.883 19.319 221.68 18.0849 222.959 16.3876C224.238 14.6903 224.93 12.6223 224.928 10.497V1.095H198.428ZM268.917 1.094V20.432H280.417V1.815C280.417 1.565 280.442 1.325 280.476 1.094H268.917ZM289.427 1.095L301.933 20.425H316.215L302.414 1.095H289.425H289.427ZM139.505 88.243C139.365 87.7386 139.294 87.2175 139.295 86.694C139.295 82.954 142.679 80.949 145.035 80.949H151.366C156.808 80.949 161.21 75.274 161.436 69.886C161.442 69.744 161.478 69.609 161.478 69.466H127.813V88.244H139.505V88.243ZM252.32 68.161H240.453V88.243H252.32V68.161ZM350.988 88.242C349.368 87.003 348.361 85.552 348.361 83.638C348.361 80.428 350.863 77.926 354.697 77.926C358.843 77.926 362.396 80.829 366.269 85.806L374.61 77.92C370.168 72.542 365.053 69.659 358.888 68.614C357.479 68.3625 356.051 68.2311 354.619 68.221C353.266 68.2209 351.916 68.3526 350.588 68.614C342.423 70.208 337.096 76.596 337.096 84.107C337.096 85.623 337.285 86.993 337.618 88.24L350.988 88.242Z" fill="#FFD500"/>
<path d="M248.893 1.41195C248.207 1.13835 247.476 0.996533 246.738 0.993949C246 0.996407 245.268 1.13822 244.582 1.41195C243.47 1.84427 242.515 2.60221 241.841 3.58658C241.166 4.57095 240.805 5.73589 240.804 6.92895V58.5579H252.671V6.92795C252.67 5.73503 252.309 4.57025 251.635 3.58605C250.961 2.60185 250.005 1.84409 248.893 1.41195ZM50.4271 38.226C49.6184 36.0892 48.1784 34.2493 46.2986 32.9508C44.4188 31.6523 42.1883 30.9568 39.9036 30.9568C37.619 30.9568 35.3884 31.6523 33.5086 32.9508C31.6288 34.2493 30.1888 36.0892 29.3801 38.226L10.3691 88.2779H22.9881L24.1621 85.2459C25.3478 82.0251 27.4927 79.2453 30.3076 77.2815C33.1225 75.3178 36.472 74.2646 39.9041 74.2639C43.3361 74.2651 46.6852 75.3185 49.4998 77.2822C52.3145 79.2459 54.4593 82.0254 55.6451 85.2459L56.8091 88.2999H69.4261L50.4261 38.2249L50.4271 38.226ZM40.8771 65.2119C39.6758 65.4162 38.4407 65.2334 37.35 64.6899C36.2594 64.1464 35.3697 63.2703 34.8094 62.1882C34.2491 61.1061 34.0472 59.874 34.2328 58.6696C34.4184 57.4653 34.982 56.3511 35.8421 55.4879C36.539 54.7906 37.4037 54.2846 38.353 54.0185C39.3023 53.7524 40.304 53.7353 41.2618 53.9689C42.2196 54.2024 43.1011 54.6786 43.8214 55.3517C44.5416 56.0249 45.0764 56.8721 45.3741 57.812C45.6927 58.8151 45.7297 59.8866 45.481 60.9093C45.2324 61.9321 44.7077 62.8669 43.9641 63.6119C43.1253 64.4521 42.0473 65.0112 40.8771 65.2119ZM107.106 30.7689L95.5071 61.6539H95.5021C95.0783 62.7213 94.3437 63.6369 93.3936 64.2822C92.4435 64.9274 91.3216 65.2725 90.1731 65.2729C89.0251 65.2724 87.9036 64.9274 86.9538 64.2825C86.0039 63.6377 85.2694 62.7227 84.8451 61.6559H84.8401L73.3101 30.8099H61.0051L82.7151 88.1769L97.6231 88.2369L119.399 30.8299L107.106 30.7689ZM151.352 47.049H145.021C142.665 47.049 139.28 45.044 139.28 41.304C139.28 37.564 142.538 35.554 145.042 35.554H152.346C155.137 35.554 158.118 33.2689 158.118 29.8139C158.118 26.3579 155.137 24.0719 152.346 24.0719H145.042C142.538 24.0719 139.28 22.0639 139.28 18.3219C139.28 14.5809 142.663 12.5779 145.021 12.5779H151.352C156.791 12.5779 161.196 6.90195 161.422 1.51395C161.426 1.37195 161.463 1.23695 161.463 1.09495H127.799V58.5309H161.463C161.463 58.3879 161.425 58.2529 161.422 58.1129C161.197 52.7229 156.793 47.049 151.352 47.049ZM187.256 71.1239C187.283 65.2869 194.757 62.8169 197.971 68.2149L206.847 83.5729C207.686 84.9216 208.84 86.0456 210.211 86.8479C211.581 87.6503 213.126 88.1067 214.713 88.1778C216.299 88.2489 217.879 87.9325 219.316 87.256C220.753 86.5794 222.003 85.5631 222.959 84.2949C224.238 82.5969 224.928 80.5284 224.925 78.4029V30.5859H213.058V71.7619L192.994 30.5869H175.389V88.188H187.256V71.1239ZM298.163 62.861C302.931 60.264 307.255 54.971 307.255 47.949C307.255 37.079 298.669 30.7269 290.448 30.7269H268.928V88.1749H280.429V69.5569C280.429 66.8449 282.571 65.2249 284.758 65.2249C286.094 65.2249 287.195 65.6109 288.416 67.2549L301.946 88.1649H316.228L298.163 62.861ZM284.761 53.5009C284.007 53.501 283.261 53.3524 282.565 53.0636C281.868 52.7748 281.236 52.3515 280.703 51.818C280.17 51.2847 279.748 50.6517 279.46 49.955C279.172 49.2584 279.024 48.5118 279.025 47.7579C279.025 47.0042 279.173 46.2578 279.461 45.5613C279.749 44.8649 280.172 44.2321 280.705 43.699C281.237 43.166 281.87 42.7433 282.567 42.455C283.263 42.1667 284.009 42.0186 284.763 42.019C286.092 42.0176 287.38 42.4775 288.408 43.3201C289.435 44.1627 290.139 45.3358 290.398 46.6392C290.657 47.9426 290.456 49.2955 289.828 50.467C289.201 51.6385 288.187 52.556 286.958 53.063C286.262 53.3516 285.515 53.5011 284.761 53.5009ZM348.393 16.0659C348.393 12.8549 350.895 10.3529 354.727 10.3529C358.871 10.3529 362.428 13.2569 366.301 18.2329L374.642 10.3469C370.198 4.96995 365.085 2.08595 358.917 1.04095C357.508 0.789386 356.08 0.657914 354.648 0.647949C353.239 0.647949 351.897 0.789949 350.62 1.04095C342.454 2.63595 337.129 9.02395 337.129 16.5349C337.129 34.7669 363.495 32.24 363.495 42.331C363.495 46.323 360.719 48.6959 356.34 48.6959C353.233 48.6959 349.205 46.805 346.34 44.879C340.652 41.055 333.666 48.883 339.542 54.123C343.403 57.564 349.889 58.5569 356.496 58.5569C366.508 58.5569 374.485 52.2959 374.644 42.125C374.644 23.58 348.396 25.8479 348.396 16.0649L348.393 16.0659Z" fill="#0D181C"/>
</g>
<mask id="mask2_6247_108797" style="mask-type:luminance" maskUnits="userSpaceOnUse" x="13" y="102" width="95" height="22">
<path d="M13 102H107.722V124H13V102Z" fill="white"/>
</mask>
<g mask="url(#mask2_6247_108797)">
<mask id="mask3_6247_108797" style="mask-type:luminance" maskUnits="userSpaceOnUse" x="13" y="102" width="95" height="22">
<path d="M13 102H107.5V124H13V102Z" fill="white"/>
</mask>
<g mask="url(#mask3_6247_108797)">
<path d="M104.764 123.992H34.5566V102H104.835C106.308 102 107.507 103.223 107.507 104.725V121.195C107.507 122.737 106.277 123.992 104.764 123.992Z" fill="#10181C"/>
<path d="M53.3712 106.155H56.7492L62.7052 115.985V106.155H65.3852V119.845L62.0232 119.837L56.0432 109.983V119.837H53.3712V106.155ZM71.3952 106.155H68.7152V119.837H71.3952V106.155ZM75.4312 116.025C76.2232 117.064 77.2812 117.679 78.3542 117.679C79.4282 117.679 80.0542 117.104 80.0542 116.137C80.0542 113.651 74.0522 114.331 74.0522 109.768C74.0522 107.634 75.7922 105.86 78.3152 105.86C80.2982 105.86 81.8022 106.763 82.9392 108.129L80.9792 109.935C80.2042 108.912 79.3342 108.241 78.3392 108.241C77.3992 108.241 76.7712 108.857 76.7712 109.664C76.7712 112.109 82.7742 111.414 82.7742 116.033C82.7342 118.574 80.7912 120.092 78.3782 120.092C76.1522 120.092 74.6632 119.261 73.4882 117.839L75.4312 116.009V116.025ZM85.2742 106.155H92.9692V108.433H87.9542V111.709H92.2172V113.987H87.9542V117.567H92.9692V119.837H85.2742V106.155ZM95.3362 106.155H99.6932C102.6 106.155 104.371 107.674 104.371 110.175C104.371 112.676 102.6 114.179 99.6932 114.179H98.0162V119.837H95.3362V106.155ZM98.0162 108.425V111.909H99.8102C100.939 111.909 101.621 111.238 101.621 110.135C101.621 109.112 100.939 108.425 99.8112 108.425H98.0162ZM44.6812 108.601C47.0552 108.601 48.9832 110.567 48.9832 112.988C48.9832 115.409 47.0552 117.375 44.6812 117.375C42.3062 117.375 40.3792 115.409 40.3792 112.988C40.3792 110.567 42.3062 108.601 44.6812 108.601ZM44.6812 105.868C40.8252 105.868 37.6992 109.056 37.6992 112.988C37.6992 116.92 40.8252 120.108 44.6812 120.108C48.5362 120.108 51.6632 116.92 51.6632 112.988C51.6632 109.056 48.5362 105.868 44.6812 105.868Z" fill="white"/>
<path d="M34.534 102.016H15.639C14.181 102.016 12.998 103.215 12.998 104.701V121.251C12.998 122.769 14.205 124 15.694 124H34.524V102.016H34.534Z" fill="#E1000F"/>
<path d="M23.9154 110.99C23.7783 110.964 23.637 110.972 23.5038 111.014C23.3707 111.056 23.2499 111.13 23.1523 111.229C23.0546 111.329 22.9831 111.451 22.944 111.585C22.905 111.719 22.8996 111.861 22.9284 111.997C22.9914 112.333 23.2574 112.604 23.5864 112.668C23.7236 112.694 23.8651 112.686 23.9983 112.645C24.1316 112.603 24.2525 112.529 24.3503 112.429C24.4481 112.33 24.5197 112.207 24.5588 112.073C24.5979 111.939 24.6033 111.798 24.5744 111.661C24.5433 111.497 24.4641 111.345 24.3467 111.226C24.2294 111.106 24.0793 111.024 23.9154 110.99Z" fill="white"/>
<path d="M31.7582 112.173C31.6463 112.058 31.5122 111.967 31.364 111.905C31.2159 111.843 31.0568 111.812 30.8962 111.813H28.0602C27.9523 111.811 27.8477 111.775 27.7622 111.709C27.6757 111.651 27.6048 111.573 27.5556 111.481C27.5064 111.389 27.4805 111.286 27.4802 111.182C27.4802 111.126 27.4802 111.078 27.4952 111.03C27.5121 110.93 27.5588 110.838 27.6292 110.766L27.6522 110.742L27.6602 110.734L30.3482 107.985C30.8182 107.506 30.8262 106.739 30.3642 106.275C30.2586 106.165 30.1321 106.077 29.9922 106.017C29.8522 105.957 29.7016 105.925 29.5492 105.924C29.2192 105.924 28.9142 106.06 28.6872 106.291L25.9672 109.056C25.9672 109.056 25.9282 109.096 25.9052 109.112C25.7988 109.205 25.6624 109.256 25.5212 109.256C25.3575 109.254 25.2011 109.188 25.0863 109.071C24.9716 108.954 24.9079 108.797 24.9092 108.633V105.74C24.9092 105.053 24.3842 104.509 23.7342 104.509C23.0842 104.509 22.5592 105.061 22.5592 105.74V108.633C22.5607 108.715 22.546 108.796 22.516 108.872C22.486 108.948 22.4413 109.017 22.3844 109.076C22.3275 109.134 22.2596 109.181 22.1846 109.214C22.1096 109.246 22.0289 109.263 21.9472 109.264C21.8061 109.264 21.6697 109.213 21.5632 109.12C21.5402 109.104 21.5242 109.088 21.5012 109.064L18.8132 106.299C18.7013 106.183 18.5674 106.091 18.4193 106.028C18.2713 105.965 18.1121 105.933 17.9512 105.932C17.6452 105.932 17.3552 106.06 17.1362 106.283C16.916 106.514 16.7944 106.822 16.7972 107.141C16.8 107.46 16.927 107.766 17.1512 107.993L19.8082 110.742V110.75L19.8312 110.774C19.9015 110.846 19.9482 110.939 19.9652 111.038C19.9784 111.088 19.9834 111.139 19.9802 111.19C19.9802 111.414 19.8702 111.606 19.6982 111.717C19.6134 111.784 19.5084 111.821 19.4002 111.821H16.5642C16.2422 111.821 15.9292 111.949 15.7022 112.181C15.4822 112.405 15.3652 112.7 15.3652 113.02C15.3652 113.675 15.8972 114.219 16.5642 114.219H19.4002C19.5022 114.219 19.5962 114.251 19.6752 114.307C19.8552 114.418 19.9722 114.61 19.9722 114.842V114.93C19.9728 114.994 19.9606 115.057 19.9366 115.116C19.9126 115.175 19.8771 115.229 19.8322 115.274L17.1432 118.047C16.6732 118.526 16.6582 119.293 17.1202 119.765C17.5742 120.228 18.3352 120.22 18.8052 119.741L21.4852 116.976C21.4852 116.976 21.5162 116.944 21.5402 116.928C21.6477 116.831 21.7873 116.777 21.9322 116.776C22.2682 116.776 22.5422 117.056 22.5422 117.399V120.308C22.5422 120.987 23.0682 121.539 23.7182 121.539C24.3682 121.539 24.8942 120.987 24.8942 120.308V117.415C24.8942 117.072 25.1682 116.792 25.5052 116.792C25.6542 116.792 25.7952 116.848 25.8972 116.944C25.9122 116.96 25.9362 116.976 25.9522 116.992L28.6632 119.765C29.1332 120.244 29.8932 120.26 30.3482 119.789C30.8102 119.317 30.7952 118.55 30.3242 118.07L27.6052 115.29C27.5604 115.245 27.5249 115.191 27.5008 115.132C27.4768 115.073 27.4647 115.01 27.4652 114.946V114.858C27.4652 114.626 27.5822 114.434 27.7622 114.323C27.8421 114.266 27.9379 114.235 28.0362 114.235H30.8732C31.5392 114.235 32.0722 113.699 32.0722 113.036C32.0722 112.716 31.9542 112.421 31.7352 112.197M25.3252 114.315C25.3252 115.29 24.6432 115.961 23.7502 115.961C22.8562 115.961 22.1752 115.29 22.1752 114.315V111.709C22.1752 110.726 22.8562 110.063 23.7502 110.063C24.6432 110.063 25.3252 110.734 25.3252 111.709V114.315Z" fill="white"/>
</g>
</g>
</g>
</svg>
