<svg width="663" height="185" viewBox="0 0 663 185" fill="none" xmlns="http://www.w3.org/2000/svg">
<path d="M620.623 27.0244C645.803 27.0244 663 45.6027 663 68.7871C663 91.9715 645.803 110.55 620.623 110.55C595.443 110.55 578.246 91.9715 578.246 68.7871C578.246 45.6027 595.443 27.0244 620.623 27.0244ZM620.93 92.1251C633.367 92.1251 642.733 82.145 642.733 68.7871C642.733 55.2756 633.367 45.4491 620.93 45.4491C608.033 45.4491 598.513 55.2756 598.513 68.7871C598.513 82.2986 608.033 92.1251 620.93 92.1251Z" fill="#1212FF"/>
<path d="M533.227 107.479C528.516 107.479 524.697 103.66 524.697 98.9488V38.6249C524.697 33.914 528.516 30.095 533.227 30.095H541.982C543.205 30.095 544.197 31.0866 544.197 32.3098C544.197 34.299 546.687 35.3452 548.274 34.1454C552.683 30.8119 558.044 28.5596 564.618 28.5596C564.861 28.5596 565.101 28.5636 565.339 28.5713C569.009 28.691 571.373 32.1108 571.373 35.7824V40.1379C571.373 44.5514 567.189 47.752 562.775 47.752C554.504 47.752 548.782 51.6933 545.511 55.9499C544.577 57.1651 544.197 58.6944 544.197 60.2271V98.9488C544.197 103.66 540.378 107.479 535.667 107.479H533.227Z" fill="#1212FF"/>
<path d="M444.558 107.477C439.847 107.477 436.028 103.658 436.028 98.9475V8.52996C436.028 3.81899 439.847 0 444.558 0H471.496C495.141 0 509.574 12.1296 509.574 32.0897C509.574 51.8963 495.141 64.0259 471.496 64.0259H466.361C461.65 64.0259 457.831 67.8449 457.831 72.5558V98.9475C457.831 103.659 454.012 107.477 449.301 107.477H444.558ZM472.417 18.1176H466.361C461.65 18.1176 457.831 21.9366 457.831 26.6476V37.3783C457.831 42.0892 461.65 45.9082 466.361 45.9082H472.417C481.629 45.9082 487.157 40.5344 487.157 31.7826C487.157 23.6451 481.629 18.1176 472.417 18.1176Z" fill="#1212FF"/>
<path d="M336.655 107.479C331.944 107.479 328.125 103.66 328.125 98.9488V38.6249C328.125 33.914 331.944 30.095 336.655 30.095H345.41C346.633 30.095 347.624 31.0866 347.624 32.3098C347.624 34.299 350.115 35.3452 351.702 34.1454C356.11 30.8119 361.471 28.5596 368.045 28.5596C368.289 28.5596 368.529 28.5636 368.767 28.5713C372.437 28.691 374.801 32.1108 374.801 35.7824V40.1379C374.801 44.5514 370.616 47.752 366.203 47.752C357.931 47.752 352.21 51.6933 348.938 55.9499C348.004 57.1651 347.624 58.6944 347.624 60.2271V98.9488C347.624 103.66 343.805 107.479 339.095 107.479H336.655Z" fill="black"/>
<path d="M286.885 74.0065V38.6242C286.885 33.9132 290.704 30.0942 295.415 30.0942H298.008C302.719 30.0942 306.538 33.9132 306.538 38.6242V73.0852C306.538 96.2697 293.026 110.549 270.302 110.549C247.579 110.549 234.221 96.2697 234.221 73.0852V38.6242C234.221 33.9132 238.04 30.0942 242.751 30.0942H245.344C250.055 30.0942 253.874 33.9132 253.874 38.6242V74.0065C253.874 85.2148 259.708 92.1241 270.456 92.1241C281.05 92.1241 286.885 85.2148 286.885 74.0065Z" fill="black"/>
<path d="M175.299 79.2258V54.8131C175.299 50.8276 172.068 47.5967 168.083 47.5967C164.097 47.5967 160.866 44.3659 160.866 40.3804V37.3096C160.866 33.3241 164.097 30.0933 168.083 30.0933C172.068 30.0933 175.299 26.8624 175.299 22.8769V19.2773C175.299 14.5663 179.118 10.7473 183.829 10.7473H186.422C191.133 10.7473 194.952 14.5663 194.952 19.2773V21.5633C194.952 26.2743 198.771 30.0933 203.482 30.0933H210.067C214.778 30.0933 218.597 33.9123 218.597 38.6232V39.0668C218.597 43.7777 214.778 47.5967 210.067 47.5967H203.482C198.771 47.5967 194.952 51.4157 194.952 56.1267V79.2258C194.952 87.824 199.558 91.2019 207.235 91.2019C212.817 91.2019 218.751 95.7452 218.751 101.327C218.751 104.477 216.9 107.463 213.821 108.126C211.02 108.728 207.78 109.012 203.857 109.012C184.511 109.012 175.299 98.1112 175.299 79.2258Z" fill="black"/>
<path d="M127.946 74.0065V38.6242C127.946 33.9132 131.765 30.0942 136.476 30.0942H139.069C143.78 30.0942 147.599 33.9132 147.599 38.6242V73.0852C147.599 96.2697 134.088 110.549 111.364 110.549C88.6401 110.549 75.2822 96.2697 75.2822 73.0852V38.6242C75.2822 33.9132 79.1012 30.0942 83.8122 30.0942H86.4053C91.1163 30.0942 94.9352 33.9132 94.9352 38.6242V74.0065C94.9352 85.2148 100.77 92.1241 111.517 92.1241C122.112 92.1241 127.946 85.2148 127.946 74.0065Z" fill="black"/>
<path d="M8.52996 107.477C3.819 107.477 0 103.658 0 98.9475V8.52996C0 3.81899 3.81899 0 8.52996 0H54.1141C58.825 0 62.644 3.81899 62.644 8.52996V9.58768C62.644 14.2986 58.825 18.1176 54.1141 18.1176H30.3325C25.6216 18.1176 21.8026 21.9366 21.8026 26.6476V35.0752C21.8026 39.7862 25.6216 43.6052 30.3325 43.6052H47.9725C52.6835 43.6052 56.5025 47.4241 56.5025 52.1351V53.1928C56.5025 57.9038 52.6835 61.7228 47.9725 61.7228H30.3325C25.6216 61.7228 21.8026 65.5418 21.8026 70.2527V98.9475C21.8026 103.658 17.9836 107.477 13.2726 107.477H8.52996Z" fill="black"/>
<path d="M0 174.31V146.453H5.65104V169.177H16.2368V174.31H0Z" fill="black"/>
<path d="M39.5135 171.047C37.643 173.554 34.5389 175.106 30.7583 175.106C23.6348 175.106 19.6154 170.132 19.6154 164.282C19.6154 158.352 23.3562 153.457 29.9226 153.457C35.494 153.457 39.1553 157.238 39.1553 162.491C39.1553 163.605 38.9961 164.64 38.8369 165.317H24.7889C25.2665 169.057 27.5746 170.57 30.7185 170.57C32.9073 170.57 34.8175 169.615 35.892 168.182L39.5135 171.047ZM29.8032 157.596C27.2165 157.596 25.5052 159.029 24.9481 161.655H34.1808C34.1012 159.626 32.6287 157.596 29.8032 157.596Z" fill="black"/>
<path d="M42.4689 171.405L45.8118 168.381C47.0455 169.933 48.5179 171.047 50.4281 171.047C52.0598 171.047 52.8955 170.092 52.8955 168.898C52.8955 165.396 43.3047 166.709 43.3047 159.665C43.3047 156.124 46.2894 153.457 50.4679 153.457C53.5322 153.457 56.318 154.93 57.7506 156.88L54.4078 159.825C53.3731 158.551 52.0598 157.516 50.5077 157.516C48.9159 157.516 48.1598 158.392 48.1598 159.427C48.1598 162.849 57.7506 161.655 57.7506 168.58C57.671 172.798 54.2884 175.106 50.5077 175.106C46.9261 175.106 44.3791 173.674 42.4689 171.405Z" fill="black"/>
<path d="M71.4629 154.253H75.2037V152.144C75.2037 147.886 78.0292 144.463 83.0435 144.463C84.8741 144.463 86.4262 144.901 87.6997 145.578L85.5507 149.796C84.9537 149.358 84.1578 149 83.1231 149C81.4119 149 80.2976 150.194 80.2976 152.025V154.253H86.4262V158.79H80.2976V174.31H75.2037V158.79H71.4629V154.253Z" fill="black"/>
<path d="M99.0748 153.457C105.601 153.457 110.059 158.273 110.059 164.282C110.059 170.291 105.601 175.106 99.0748 175.106C92.5482 175.106 88.0911 170.291 88.0911 164.282C88.0911 158.273 92.5482 153.457 99.0748 153.457ZM99.1544 170.331C102.378 170.331 104.805 167.744 104.805 164.282C104.805 160.78 102.378 158.233 99.1544 158.233C95.8115 158.233 93.3442 160.78 93.3442 164.282C93.3442 167.784 95.8115 170.331 99.1544 170.331Z" fill="black"/>
<path d="M115.066 174.31V154.253H120.12V156.243C121.434 154.89 123.145 153.855 125.413 153.855C126.09 153.855 126.687 153.975 127.164 154.134V159.108C126.528 158.949 125.851 158.83 124.936 158.83C122.468 158.83 120.877 160.183 120.12 161.456V174.31H115.066Z" fill="black"/>
<path d="M131.631 174.31V154.253H136.686V155.765C138.039 154.452 139.75 153.457 142.217 153.457C144.764 153.457 146.993 154.572 148.306 156.721C149.739 154.97 151.649 153.457 155.031 153.457C159.17 153.457 162.434 156.323 162.434 161.974V174.31H157.34V162.173C157.34 159.745 156.026 158.233 153.758 158.233C151.569 158.233 150.375 159.745 149.579 161.098C149.619 161.377 149.619 161.655 149.619 161.974V174.31H144.525V162.173C144.525 159.745 143.212 158.233 140.944 158.233C138.636 158.233 137.442 159.944 136.686 161.218V174.31H131.631Z" fill="black"/>
<path d="M174.251 174.907C170.231 174.907 167.485 172.599 167.485 168.898C167.485 165.874 169.833 163.605 174.131 162.889L180.26 161.854V161.337C180.26 159.228 178.668 157.875 176.36 157.875C174.41 157.875 172.898 158.79 171.823 160.262L168.122 157.437C169.913 154.97 172.858 153.457 176.519 153.457C182.329 153.457 185.314 156.92 185.314 161.337V174.31H180.26V172.36C178.987 173.912 176.599 174.907 174.251 174.907ZM172.5 168.659C172.5 170.012 173.574 170.888 175.286 170.888C177.594 170.888 179.265 169.813 180.26 168.222V165.396L175.484 166.192C173.375 166.55 172.5 167.426 172.5 168.659Z" fill="black"/>
<path d="M192.773 166.988V158.79H189.032V154.253H192.773V149.239H197.867V154.253H203.996V158.79H197.867V166.988C197.867 169.217 199.061 170.092 201.051 170.092C202.444 170.092 203.359 169.933 204.035 169.654V174.072C203.04 174.509 201.847 174.708 200.175 174.708C195.161 174.708 192.773 171.883 192.773 166.988Z" fill="black"/>
<path d="M211.467 150.751C209.676 150.751 208.164 149.239 208.164 147.448C208.164 145.657 209.676 144.145 211.467 144.145C213.257 144.145 214.73 145.657 214.73 147.448C214.73 149.239 213.257 150.751 211.467 150.751ZM208.92 174.31V154.253H213.974V174.31H208.92Z" fill="black"/>
<path d="M229.984 153.457C236.51 153.457 240.967 158.273 240.967 164.282C240.967 170.291 236.51 175.106 229.984 175.106C223.457 175.106 219 170.291 219 164.282C219 158.273 223.457 153.457 229.984 153.457ZM230.063 170.331C233.287 170.331 235.714 167.744 235.714 164.282C235.714 160.78 233.287 158.233 230.063 158.233C226.72 158.233 224.253 160.78 224.253 164.282C224.253 167.784 226.72 170.331 230.063 170.331Z" fill="black"/>
<path d="M245.975 174.31V154.253H251.029V155.845C252.422 154.492 254.292 153.457 256.959 153.457C261.297 153.457 264.759 156.442 264.759 162.372V174.31H259.665V162.571C259.665 159.904 258.153 158.233 255.685 158.233C253.138 158.233 251.785 159.944 251.029 161.218V174.31H245.975Z" fill="black"/>
<path d="M269.145 171.405L272.488 168.381C273.721 169.933 275.194 171.047 277.104 171.047C278.736 171.047 279.571 170.092 279.571 168.898C279.571 165.396 269.981 166.709 269.981 159.665C269.981 156.124 272.965 153.457 277.144 153.457C280.208 153.457 282.994 154.93 284.427 156.88L281.084 159.825C280.049 158.551 278.736 157.516 277.184 157.516C275.592 157.516 274.836 158.392 274.836 159.427C274.836 162.849 284.427 161.655 284.427 168.58C284.347 172.798 280.964 175.106 277.184 175.106C273.602 175.106 271.055 173.674 269.145 171.405Z" fill="black"/>
<path d="M305.262 148.324C304.387 148.881 303.71 149.398 303.233 149.876C302.755 150.327 302.41 150.738 302.198 151.109C301.986 151.454 301.853 151.773 301.8 152.064C301.773 152.33 301.76 152.582 301.76 152.821C301.76 153.219 301.972 153.418 302.397 153.418C304.015 153.418 304.825 154.147 304.825 155.606C304.825 157.463 303.962 158.392 302.238 158.392C300.009 158.392 298.895 157.065 298.895 154.412C298.895 152.794 299.359 151.401 300.288 150.234C301.243 149.066 302.622 148.019 304.427 147.09L305.262 148.324ZM311.868 148.324C310.993 148.881 310.316 149.398 309.839 149.876C309.388 150.327 309.056 150.738 308.844 151.109C308.632 151.454 308.499 151.773 308.446 152.064C308.419 152.33 308.406 152.582 308.406 152.821C308.406 153.219 308.618 153.418 309.043 153.418C310.661 153.418 311.47 154.147 311.47 155.606C311.47 157.463 310.608 158.392 308.884 158.392C306.655 158.392 305.541 157.065 305.541 154.412C305.541 152.794 306.005 151.401 306.934 150.234C307.862 149.066 309.215 148.019 310.993 147.09L311.868 148.324Z" fill="black"/>
<path d="M316.588 184.1V154.253H321.642V155.885C323.194 154.333 325.144 153.457 327.89 153.457C334.258 153.457 338.078 158.432 338.078 164.282C338.078 170.132 334.258 175.106 327.89 175.106C325.144 175.106 323.194 174.231 321.642 172.679V184.1H316.588ZM327.174 158.233C324.826 158.233 322.916 159.268 321.642 161.138V167.426C322.995 169.336 324.866 170.331 327.174 170.331C330.596 170.331 332.825 167.784 332.825 164.282C332.825 160.78 330.596 158.233 327.174 158.233Z" fill="black"/>
<path d="M343.102 174.31V154.253H348.157V156.243C349.47 154.89 351.181 153.855 353.449 153.855C354.126 153.855 354.723 153.975 355.2 154.134V159.108C354.564 158.949 353.887 158.83 352.972 158.83C350.504 158.83 348.913 160.183 348.157 161.456V174.31H343.102Z" fill="black"/>
<path d="M368.364 153.457C374.89 153.457 379.347 158.273 379.347 164.282C379.347 170.291 374.89 175.106 368.364 175.106C361.837 175.106 357.38 170.291 357.38 164.282C357.38 158.273 361.837 153.457 368.364 153.457ZM368.443 170.331C371.667 170.331 374.094 167.744 374.094 164.282C374.094 160.78 371.667 158.233 368.443 158.233C365.1 158.233 362.633 160.78 362.633 164.282C362.633 167.784 365.1 170.331 368.443 170.331Z" fill="black"/>
<path d="M389.29 157.158C390.165 156.601 390.842 156.097 391.319 155.646C391.797 155.169 392.142 154.757 392.354 154.412C392.566 154.041 392.686 153.723 392.712 153.457C392.765 153.165 392.792 152.913 392.792 152.701C392.792 152.25 392.58 152.025 392.155 152.025C390.51 152.025 389.688 151.308 389.688 149.876C389.688 148.045 390.55 147.13 392.275 147.13C394.503 147.13 395.617 148.43 395.617 151.03C395.617 152.648 395.14 154.054 394.185 155.248C393.256 156.442 391.903 157.503 390.126 158.432L389.29 157.158ZM382.644 157.158C383.519 156.601 384.196 156.097 384.673 155.646C385.151 155.169 385.496 154.757 385.708 154.412C385.92 154.041 386.04 153.723 386.066 153.457C386.119 153.165 386.146 152.913 386.146 152.701C386.146 152.25 385.934 152.025 385.509 152.025C383.891 152.025 383.082 151.308 383.082 149.876C383.082 148.045 383.944 147.13 385.668 147.13C387.897 147.13 389.011 148.43 389.011 151.03C389.011 152.648 388.547 154.054 387.618 155.248C386.716 156.442 385.35 157.503 383.519 158.432L382.644 157.158Z" fill="black"/>
<path d="M417.113 174.907C413.093 174.907 410.347 172.599 410.347 168.898C410.347 165.874 412.695 163.605 416.993 162.889L423.122 161.854V161.337C423.122 159.228 421.53 157.875 419.222 157.875C417.272 157.875 415.759 158.79 414.685 160.262L410.984 157.437C412.775 154.97 415.72 153.457 419.381 153.457C425.191 153.457 428.176 156.92 428.176 161.337V174.31H423.122V172.36C421.848 173.912 419.46 174.907 417.113 174.907ZM415.362 168.659C415.362 170.012 416.436 170.888 418.147 170.888C420.455 170.888 422.127 169.813 423.122 168.222V165.396L418.346 166.192C416.237 166.55 415.362 167.426 415.362 168.659Z" fill="black"/>
<path d="M447.574 165.635V154.253H452.667V165.396C452.667 171.405 449.165 175.106 443.276 175.106C437.386 175.106 433.924 171.405 433.924 165.396V154.253H439.017V165.635C439.017 168.54 440.53 170.331 443.315 170.331C446.061 170.331 447.574 168.54 447.574 165.635Z" fill="black"/>
<path d="M460.245 166.988V158.79H456.504V154.253H460.245V149.239H465.339V154.253H471.467V158.79H465.339V166.988C465.339 169.217 466.532 170.092 468.522 170.092C469.915 170.092 470.83 169.933 471.507 169.654V174.072C470.512 174.509 469.318 174.708 467.647 174.708C462.632 174.708 460.245 171.883 460.245 166.988Z" fill="black"/>
<path d="M485.554 153.457C492.08 153.457 496.537 158.273 496.537 164.282C496.537 170.291 492.08 175.106 485.554 175.106C479.027 175.106 474.57 170.291 474.57 164.282C474.57 158.273 479.027 153.457 485.554 153.457ZM485.633 170.331C488.857 170.331 491.284 167.744 491.284 164.282C491.284 160.78 488.857 158.233 485.633 158.233C482.29 158.233 479.823 160.78 479.823 164.282C479.823 167.784 482.29 170.331 485.633 170.331Z" fill="black"/>
<path d="M514.758 165.635V154.253H519.851V165.396C519.851 171.405 516.349 175.106 510.459 175.106C504.57 175.106 501.107 171.405 501.107 165.396V154.253H506.201V165.635C506.201 168.54 507.714 170.331 510.499 170.331C513.245 170.331 514.758 168.54 514.758 165.635Z" fill="black"/>
<path d="M525.844 174.31V154.253H530.898V156.243C532.211 154.89 533.923 153.855 536.191 153.855C536.868 153.855 537.465 153.975 537.942 154.134V159.108C537.305 158.949 536.629 158.83 535.714 158.83C533.246 158.83 531.654 160.183 530.898 161.456V174.31H525.844Z" fill="black"/>
<path d="M552.101 164.282C552.101 158.432 555.961 153.457 562.289 153.457C564.995 153.457 566.945 154.293 568.497 155.845V144.463H573.591V174.31H568.497V172.719C566.945 174.271 564.995 175.106 562.289 175.106C555.961 175.106 552.101 170.132 552.101 164.282ZM557.394 164.282C557.394 167.784 559.582 170.331 563.005 170.331C565.273 170.331 567.144 169.376 568.497 167.545V161.019C567.144 159.188 565.273 158.233 563.005 158.233C559.582 158.233 557.394 160.78 557.394 164.282Z" fill="black"/>
<path d="M598.513 171.047C596.643 173.554 593.539 175.106 589.758 175.106C582.634 175.106 578.615 170.132 578.615 164.282C578.615 158.352 582.356 153.457 588.922 153.457C594.494 153.457 598.155 157.238 598.155 162.491C598.155 163.605 597.996 164.64 597.836 165.317H583.788C584.266 169.057 586.574 170.57 589.718 170.57C591.907 170.57 593.817 169.615 594.892 168.182L598.513 171.047ZM588.803 157.596C586.216 157.596 584.505 159.029 583.948 161.655H593.18C593.101 159.626 591.628 157.596 588.803 157.596Z" fill="black"/>
<path d="M615.889 166.988V158.79H612.148V154.253H615.889V149.239H620.983V154.253H627.112V158.79H620.983V166.988C620.983 169.217 622.177 170.092 624.167 170.092C625.56 170.092 626.475 169.933 627.151 169.654V174.072C626.157 174.509 624.963 174.708 623.291 174.708C618.277 174.708 615.889 171.883 615.889 166.988Z" fill="black"/>
<path d="M641.198 153.457C647.725 153.457 652.182 158.273 652.182 164.282C652.182 170.291 647.725 175.106 641.198 175.106C634.672 175.106 630.215 170.291 630.215 164.282C630.215 158.273 634.672 153.457 641.198 153.457ZM641.278 170.331C644.501 170.331 646.929 167.744 646.929 164.282C646.929 160.78 644.501 158.233 641.278 158.233C637.935 158.233 635.468 160.78 635.468 164.282C635.468 167.784 637.935 170.331 641.278 170.331Z" fill="black"/>
<path d="M659.737 150.751C657.946 150.751 656.434 149.239 656.434 147.448C656.434 145.657 657.946 144.145 659.737 144.145C661.528 144.145 663 145.657 663 147.448C663 149.239 661.528 150.751 659.737 150.751ZM657.19 174.31V154.253H662.244V174.31H657.19Z" fill="black"/>
</svg>
