<svg width="663" height="185" viewBox="0 0 663 185" fill="none" xmlns="http://www.w3.org/2000/svg">
<path d="M620.623 27.0244C645.803 27.0244 663 45.6027 663 68.7871C663 91.9715 645.803 110.55 620.623 110.55C595.443 110.55 578.246 91.9715 578.246 68.7871C578.246 45.6027 595.443 27.0244 620.623 27.0244ZM620.93 92.1251C633.367 92.1251 642.733 82.145 642.733 68.7871C642.733 55.2756 633.367 45.4491 620.93 45.4491C608.033 45.4491 598.513 55.2756 598.513 68.7871C598.513 82.2986 608.033 92.1251 620.93 92.1251Z" fill="#1212FF"/>
<path d="M533.227 107.479C528.516 107.479 524.697 103.66 524.697 98.9488V38.6249C524.697 33.914 528.516 30.095 533.227 30.095H541.982C543.205 30.095 544.197 31.0866 544.197 32.3098C544.197 34.299 546.687 35.3452 548.274 34.1454C552.683 30.8119 558.044 28.5596 564.618 28.5596C564.861 28.5596 565.101 28.5636 565.339 28.5713C569.009 28.691 571.373 32.1108 571.373 35.7824V40.1379C571.373 44.5514 567.189 47.752 562.775 47.752C554.504 47.752 548.782 51.6933 545.511 55.9499C544.577 57.1651 544.197 58.6944 544.197 60.2271V98.9488C544.197 103.66 540.378 107.479 535.667 107.479H533.227Z" fill="#1212FF"/>
<path d="M444.558 107.477C439.847 107.477 436.028 103.658 436.028 98.9475V8.52996C436.028 3.81899 439.847 0 444.558 0H471.496C495.141 0 509.574 12.1296 509.574 32.0897C509.574 51.8963 495.141 64.0259 471.496 64.0259H466.361C461.65 64.0259 457.831 67.8449 457.831 72.5558V98.9475C457.831 103.659 454.012 107.477 449.301 107.477H444.558ZM472.417 18.1176H466.361C461.65 18.1176 457.831 21.9366 457.831 26.6476V37.3783C457.831 42.0892 461.65 45.9082 466.361 45.9082H472.417C481.629 45.9082 487.157 40.5344 487.157 31.7826C487.157 23.6451 481.629 18.1176 472.417 18.1176Z" fill="#1212FF"/>
<path d="M336.655 107.479C331.944 107.479 328.125 103.66 328.125 98.9488V38.6249C328.125 33.914 331.944 30.095 336.655 30.095H345.41C346.633 30.095 347.624 31.0866 347.624 32.3098C347.624 34.299 350.115 35.3452 351.702 34.1454C356.11 30.8119 361.471 28.5596 368.045 28.5596C368.289 28.5596 368.529 28.5636 368.767 28.5713C372.437 28.691 374.801 32.1108 374.801 35.7824V40.1379C374.801 44.5514 370.616 47.752 366.203 47.752C357.931 47.752 352.21 51.6933 348.938 55.9499C348.004 57.1651 347.624 58.6944 347.624 60.2271V98.9488C347.624 103.66 343.805 107.479 339.095 107.479H336.655Z" fill="black"/>
<path d="M286.885 74.0065V38.6242C286.885 33.9132 290.704 30.0942 295.415 30.0942H298.008C302.719 30.0942 306.538 33.9132 306.538 38.6242V73.0852C306.538 96.2697 293.026 110.549 270.302 110.549C247.579 110.549 234.221 96.2697 234.221 73.0852V38.6242C234.221 33.9132 238.04 30.0942 242.751 30.0942H245.344C250.055 30.0942 253.874 33.9132 253.874 38.6242V74.0065C253.874 85.2148 259.708 92.1241 270.456 92.1241C281.05 92.1241 286.885 85.2148 286.885 74.0065Z" fill="black"/>
<path d="M175.299 79.2258V54.8131C175.299 50.8276 172.068 47.5967 168.083 47.5967C164.097 47.5967 160.866 44.3659 160.866 40.3804V37.3096C160.866 33.3241 164.097 30.0933 168.083 30.0933C172.068 30.0933 175.299 26.8624 175.299 22.8769V19.2773C175.299 14.5663 179.118 10.7473 183.829 10.7473H186.422C191.133 10.7473 194.952 14.5663 194.952 19.2773V21.5633C194.952 26.2743 198.771 30.0933 203.482 30.0933H210.067C214.778 30.0933 218.597 33.9123 218.597 38.6232V39.0668C218.597 43.7777 214.778 47.5967 210.067 47.5967H203.482C198.771 47.5967 194.952 51.4157 194.952 56.1267V79.2258C194.952 87.824 199.558 91.2019 207.235 91.2019C212.817 91.2019 218.751 95.7452 218.751 101.327C218.751 104.477 216.9 107.463 213.821 108.126C211.02 108.728 207.78 109.012 203.857 109.012C184.511 109.012 175.299 98.1112 175.299 79.2258Z" fill="black"/>
<path d="M127.946 74.0065V38.6242C127.946 33.9132 131.765 30.0942 136.476 30.0942H139.069C143.78 30.0942 147.599 33.9132 147.599 38.6242V73.0852C147.599 96.2697 134.088 110.549 111.364 110.549C88.6401 110.549 75.2822 96.2697 75.2822 73.0852V38.6242C75.2822 33.9132 79.1012 30.0942 83.8122 30.0942H86.4053C91.1163 30.0942 94.9352 33.9132 94.9352 38.6242V74.0065C94.9352 85.2148 100.77 92.1241 111.517 92.1241C122.112 92.1241 127.946 85.2148 127.946 74.0065Z" fill="black"/>
<path d="M8.52996 107.477C3.819 107.477 0 103.658 0 98.9475V8.52996C0 3.81899 3.81899 0 8.52996 0H54.1141C58.825 0 62.644 3.81899 62.644 8.52996V9.58768C62.644 14.2986 58.825 18.1176 54.1141 18.1176H30.3325C25.6216 18.1176 21.8026 21.9366 21.8026 26.6476V35.0752C21.8026 39.7862 25.6216 43.6052 30.3325 43.6052H47.9725C52.6835 43.6052 56.5025 47.4241 56.5025 52.1351V53.1928C56.5025 57.9038 52.6835 61.7228 47.9725 61.7228H30.3325C25.6216 61.7228 21.8026 65.5418 21.8026 70.2527V98.9475C21.8026 103.658 17.9836 107.477 13.2726 107.477H8.52996Z" fill="black"/>
<path d="M0 174.31V146.453H5.65104V169.177H16.2368V174.31H0Z" fill="black"/>
<path d="M39.5135 171.047C37.643 173.554 34.5389 175.106 30.7583 175.106C23.6348 175.106 19.6154 170.132 19.6154 164.282C19.6154 158.352 23.3562 153.457 29.9226 153.457C35.494 153.457 39.1553 157.238 39.1553 162.491C39.1553 163.605 38.9961 164.64 38.8369 165.316H24.7889C25.2665 169.057 27.5746 170.569 30.7185 170.569C32.9073 170.569 34.8175 169.614 35.892 168.182L39.5135 171.047ZM29.8032 157.596C27.2165 157.596 25.5052 159.029 24.9481 161.655H34.1808C34.1012 159.626 32.6287 157.596 29.8032 157.596Z" fill="black"/>
<path d="M42.4689 171.405L45.8118 168.381C47.0455 169.933 48.5179 171.047 50.4281 171.047C52.0598 171.047 52.8955 170.092 52.8955 168.898C52.8955 165.396 43.3047 166.709 43.3047 159.665C43.3047 156.123 46.2894 153.457 50.4679 153.457C53.5322 153.457 56.318 154.93 57.7506 156.88L54.4078 159.825C53.3731 158.551 52.0598 157.516 50.5077 157.516C48.9159 157.516 48.1598 158.392 48.1598 159.427C48.1598 162.849 57.7506 161.655 57.7506 168.58C57.671 172.798 54.2884 175.106 50.5077 175.106C46.9261 175.106 44.3791 173.674 42.4689 171.405Z" fill="black"/>
<path d="M75.4629 154.253H79.2037V152.144C79.2037 147.886 82.0292 144.463 87.0435 144.463C88.8741 144.463 90.4262 144.901 91.6997 145.578L89.5507 149.796C88.9537 149.358 88.1578 149 87.1231 149C85.4119 149 84.2976 150.194 84.2976 152.024V154.253H90.4262V158.79H84.2976V174.31H79.2037V158.79H75.4629V154.253Z" fill="black"/>
<path d="M103.075 153.457C109.601 153.457 114.059 158.272 114.059 164.282C114.059 170.291 109.601 175.106 103.075 175.106C96.5482 175.106 92.0911 170.291 92.0911 164.282C92.0911 158.272 96.5482 153.457 103.075 153.457ZM103.154 170.331C106.378 170.331 108.805 167.744 108.805 164.282C108.805 160.78 106.378 158.233 103.154 158.233C99.8115 158.233 97.3442 160.78 97.3442 164.282C97.3442 167.784 99.8115 170.331 103.154 170.331Z" fill="black"/>
<path d="M119.066 174.31V154.253H124.12V156.243C125.434 154.89 127.145 153.855 129.413 153.855C130.09 153.855 130.687 153.975 131.164 154.134V159.108C130.528 158.949 129.851 158.83 128.936 158.83C126.468 158.83 124.877 160.183 124.12 161.456V174.31H119.066Z" fill="black"/>
<path d="M135.631 174.31V154.253H140.686V155.765C142.039 154.452 143.75 153.457 146.217 153.457C148.764 153.457 150.993 154.571 152.306 156.72C153.739 154.969 155.649 153.457 159.031 153.457C163.17 153.457 166.434 156.322 166.434 161.974V174.31H161.34V162.172C161.34 159.745 160.026 158.233 157.758 158.233C155.569 158.233 154.375 159.745 153.579 161.098C153.619 161.377 153.619 161.655 153.619 161.974V174.31H148.525V162.172C148.525 159.745 147.212 158.233 144.944 158.233C142.636 158.233 141.442 159.944 140.686 161.217V174.31H135.631Z" fill="black"/>
<path d="M178.251 174.907C174.231 174.907 171.485 172.599 171.485 168.898C171.485 165.874 173.833 163.605 178.131 162.889L184.26 161.854V161.337C184.26 159.228 182.668 157.875 180.36 157.875C178.41 157.875 176.898 158.79 175.823 160.262L172.122 157.437C173.913 154.969 176.858 153.457 180.519 153.457C186.329 153.457 189.314 156.919 189.314 161.337V174.31H184.26V172.36C182.987 173.912 180.599 174.907 178.251 174.907ZM176.5 168.659C176.5 170.012 177.574 170.888 179.286 170.888C181.594 170.888 183.265 169.813 184.26 168.221V165.396L179.484 166.192C177.375 166.55 176.5 167.426 176.5 168.659Z" fill="black"/>
<path d="M196.773 166.988V158.79H193.032V154.253H196.773V149.239H201.867V154.253H207.996V158.79H201.867V166.988C201.867 169.216 203.061 170.092 205.051 170.092C206.444 170.092 207.359 169.933 208.035 169.654V174.072C207.04 174.509 205.847 174.708 204.175 174.708C199.161 174.708 196.773 171.883 196.773 166.988Z" fill="black"/>
<path d="M215.467 150.751C213.676 150.751 212.164 149.239 212.164 147.448C212.164 145.657 213.676 144.145 215.467 144.145C217.257 144.145 218.73 145.657 218.73 147.448C218.73 149.239 217.257 150.751 215.467 150.751ZM212.92 174.31V154.253H217.974V174.31H212.92Z" fill="black"/>
<path d="M233.984 153.457C240.51 153.457 244.967 158.272 244.967 164.282C244.967 170.291 240.51 175.106 233.984 175.106C227.457 175.106 223 170.291 223 164.282C223 158.272 227.457 153.457 233.984 153.457ZM234.063 170.331C237.287 170.331 239.714 167.744 239.714 164.282C239.714 160.78 237.287 158.233 234.063 158.233C230.72 158.233 228.253 160.78 228.253 164.282C228.253 167.784 230.72 170.331 234.063 170.331Z" fill="black"/>
<path d="M249.975 174.31V154.253H255.029V155.845C256.422 154.492 258.292 153.457 260.959 153.457C265.297 153.457 268.759 156.442 268.759 162.371V174.31H263.665V162.57C263.665 159.904 262.153 158.233 259.685 158.233C257.138 158.233 255.785 159.944 255.029 161.217V174.31H249.975Z" fill="black"/>
<path d="M273.145 171.405L276.488 168.381C277.721 169.933 279.194 171.047 281.104 171.047C282.736 171.047 283.571 170.092 283.571 168.898C283.571 165.396 273.981 166.709 273.981 159.665C273.981 156.123 276.965 153.457 281.144 153.457C284.208 153.457 286.994 154.93 288.427 156.88L285.084 159.825C284.049 158.551 282.736 157.516 281.184 157.516C279.592 157.516 278.836 158.392 278.836 159.427C278.836 162.849 288.427 161.655 288.427 168.58C288.347 172.798 284.964 175.106 281.184 175.106C277.602 175.106 275.055 173.674 273.145 171.405Z" fill="black"/>
<path d="M306 184V154.153H311.054V155.785C312.606 154.232 314.556 153.357 317.302 153.357C323.669 153.357 327.49 158.331 327.49 164.181C327.49 170.032 323.669 175.006 317.302 175.006C314.556 175.006 312.606 174.131 311.054 172.578V184H306ZM316.586 158.132C314.238 158.132 312.328 159.167 311.054 161.038V167.325C312.407 169.236 314.278 170.23 316.586 170.23C320.008 170.23 322.237 167.684 322.237 164.181C322.237 160.679 320.008 158.132 316.586 158.132Z" fill="black"/>
<path d="M332.514 174.21V154.153H337.568V156.143C338.882 154.79 340.593 153.755 342.861 153.755C343.538 153.755 344.135 153.874 344.612 154.033V159.008C343.975 158.849 343.299 158.729 342.384 158.729C339.916 158.729 338.324 160.082 337.568 161.356V174.21H332.514Z" fill="black"/>
<path d="M357.775 153.357C364.302 153.357 368.759 158.172 368.759 164.181C368.759 170.191 364.302 175.006 357.775 175.006C351.249 175.006 346.792 170.191 346.792 164.181C346.792 158.172 351.249 153.357 357.775 153.357ZM357.855 170.23C361.078 170.23 363.506 167.644 363.506 164.181C363.506 160.679 361.078 158.132 357.855 158.132C354.512 158.132 352.045 160.679 352.045 164.181C352.045 167.684 354.512 170.23 357.855 170.23Z" fill="black"/>
<path d="M393.524 174.807C389.505 174.807 386.759 172.499 386.759 168.798C386.759 165.773 389.107 163.505 393.405 162.789L399.533 161.754V161.237C399.533 159.127 397.942 157.774 395.633 157.774C393.683 157.774 392.171 158.69 391.097 160.162L387.396 157.337C389.186 154.869 392.131 153.357 395.793 153.357C401.603 153.357 404.588 156.819 404.588 161.237V174.21H399.533V172.26C398.26 173.812 395.872 174.807 393.524 174.807ZM391.773 168.559C391.773 169.912 392.848 170.788 394.559 170.788C396.867 170.788 398.539 169.713 399.533 168.121V165.296L394.758 166.092C392.649 166.45 391.773 167.325 391.773 168.559Z" fill="black"/>
<path d="M423.985 165.535V154.153H429.079V165.296C429.079 171.305 425.577 175.006 419.687 175.006C413.798 175.006 410.335 171.305 410.335 165.296V154.153H415.429V165.535C415.429 168.44 416.941 170.23 419.727 170.23C422.473 170.23 423.985 168.44 423.985 165.535Z" fill="black"/>
<path d="M436.656 166.888V158.69H432.915V154.153H436.656V149.139H441.75V154.153H447.879V158.69H441.75V166.888C441.75 169.116 442.944 169.992 444.934 169.992C446.327 169.992 447.242 169.833 447.919 169.554V173.971C446.924 174.409 445.73 174.608 444.058 174.608C439.044 174.608 436.656 171.783 436.656 166.888Z" fill="black"/>
<path d="M461.965 153.357C468.492 153.357 472.949 158.172 472.949 164.181C472.949 170.191 468.492 175.006 461.965 175.006C455.439 175.006 450.982 170.191 450.982 164.181C450.982 158.172 455.439 153.357 461.965 153.357ZM462.045 170.23C465.268 170.23 467.696 167.644 467.696 164.181C467.696 160.679 465.268 158.132 462.045 158.132C458.702 158.132 456.235 160.679 456.235 164.181C456.235 167.684 458.702 170.23 462.045 170.23Z" fill="black"/>
<path d="M491.169 165.535V154.153H496.263V165.296C496.263 171.305 492.761 175.006 486.871 175.006C480.981 175.006 477.519 171.305 477.519 165.296V154.153H482.613V165.535C482.613 168.44 484.125 170.23 486.911 170.23C489.657 170.23 491.169 168.44 491.169 165.535Z" fill="black"/>
<path d="M502.256 174.21V154.153H507.31V156.143C508.623 154.79 510.334 153.755 512.603 153.755C513.279 153.755 513.876 153.874 514.354 154.033V159.008C513.717 158.849 513.041 158.729 512.125 158.729C509.658 158.729 508.066 160.082 507.31 161.356V174.21H502.256Z" fill="black"/>
<path d="M531.512 164.181C531.512 158.331 535.373 153.357 541.7 153.357C544.406 153.357 546.356 154.193 547.908 155.745V144.363H553.002V174.21H547.908V172.618C546.356 174.17 544.406 175.006 541.7 175.006C535.373 175.006 531.512 170.032 531.512 164.181ZM536.805 164.181C536.805 167.684 538.994 170.23 542.417 170.23C544.685 170.23 546.555 169.275 547.908 167.445V160.918C546.555 159.088 544.685 158.132 542.417 158.132C538.994 158.132 536.805 160.679 536.805 164.181Z" fill="black"/>
<path d="M577.925 170.947C576.054 173.454 572.95 175.006 569.17 175.006C562.046 175.006 558.027 170.032 558.027 164.181C558.027 158.252 561.768 153.357 568.334 153.357C573.905 153.357 577.567 157.138 577.567 162.391C577.567 163.505 577.407 164.54 577.248 165.216H563.2C563.678 168.957 565.986 170.469 569.13 170.469C571.319 170.469 573.229 169.514 574.303 168.082L577.925 170.947ZM568.214 157.496C565.628 157.496 563.917 158.928 563.359 161.555H572.592C572.512 159.525 571.04 157.496 568.214 157.496Z" fill="black"/>
<path d="M624.61 153.357C631.137 153.357 635.594 158.172 635.594 164.181C635.594 170.191 631.137 175.006 624.61 175.006C618.083 175.006 613.626 170.191 613.626 164.181C613.626 158.172 618.083 153.357 624.61 153.357ZM624.69 170.23C627.913 170.23 630.341 167.644 630.341 164.181C630.341 160.679 627.913 158.132 624.69 158.132C621.347 158.132 618.879 160.679 618.879 164.181C618.879 167.684 621.347 170.23 624.69 170.23Z" fill="black"/>
<path d="M643.148 150.651C641.358 150.651 639.845 149.139 639.845 147.348C639.845 145.557 641.358 144.045 643.148 144.045C644.939 144.045 646.412 145.557 646.412 147.348C646.412 149.139 644.939 150.651 643.148 150.651ZM640.601 174.21V154.153H645.656V174.21H640.601Z" fill="black"/>
<path d="M595.145 171.405L598.487 168.381C599.721 169.933 601.194 171.047 603.104 171.047C604.735 171.047 605.571 170.092 605.571 168.898C605.571 165.396 595.98 166.709 595.98 159.665C595.98 156.123 598.965 153.457 603.144 153.457C606.208 153.457 608.994 154.929 610.426 156.879L607.083 159.824C606.049 158.551 604.735 157.516 603.183 157.516C601.591 157.516 600.835 158.392 600.835 159.426C600.835 162.849 610.426 161.655 610.426 168.58C610.347 172.798 606.964 175.106 603.183 175.106C599.602 175.106 597.055 173.673 595.145 171.405Z" fill="black"/>
</svg>
