<svg width="299" height="49" viewBox="0 0 299 49" fill="none" xmlns="http://www.w3.org/2000/svg">
<path d="M0.652344 44.4402V32.6777H3.03845V42.2726H7.50819V44.4402H0.652344Z" fill="black"/>
<path d="M17.3366 43.0623C16.5468 44.1209 15.2361 44.7763 13.6398 44.7763C10.6319 44.7763 8.93478 42.6758 8.93478 40.2057C8.93478 37.702 10.5143 35.6352 13.2869 35.6352C15.6394 35.6352 17.1853 37.2315 17.1853 39.4496C17.1853 39.9201 17.1181 40.3569 17.0509 40.6426H11.1192C11.3209 42.2221 12.2955 42.8607 13.623 42.8607C14.5472 42.8607 15.3537 42.4574 15.8074 41.8525L17.3366 43.0623ZM13.2365 37.3827C12.1443 37.3827 11.4217 37.9877 11.1865 39.0967H15.0849C15.0513 38.2397 14.4295 37.3827 13.2365 37.3827Z" fill="black"/>
<path d="M18.5845 43.2136L19.996 41.9365C20.5169 42.5918 21.1386 43.0623 21.9452 43.0623C22.6341 43.0623 22.987 42.659 22.987 42.1549C22.987 40.6762 18.9374 41.2307 18.9374 38.2565C18.9374 36.761 20.1976 35.6352 21.962 35.6352C23.2559 35.6352 24.4321 36.2569 25.037 37.0803L23.6255 38.3237C23.1887 37.786 22.6341 37.3491 21.9788 37.3491C21.3067 37.3491 20.9874 37.7188 20.9874 38.1557C20.9874 39.6008 25.037 39.0967 25.037 42.0205C25.0034 43.8017 23.5751 44.7763 21.9788 44.7763C20.4665 44.7763 19.3911 44.1714 18.5845 43.2136Z" fill="black"/>
<path d="M30.8269 35.9712H32.4065V35.0806C32.4065 33.2827 33.5995 31.8376 35.7167 31.8376C36.4897 31.8376 37.145 32.0224 37.6828 32.3081L36.7754 34.0892C36.5233 33.9044 36.1872 33.7532 35.7504 33.7532C35.0278 33.7532 34.5573 34.2573 34.5573 35.0302V35.9712H37.1451V37.8868H34.5573V44.4402H32.4065V37.8868H30.8269V35.9712Z" fill="black"/>
<path d="M42.4858 35.6352C45.2416 35.6352 47.1236 37.6684 47.1236 40.2057C47.1236 42.7431 45.2416 44.7763 42.4858 44.7763C39.73 44.7763 37.848 42.7431 37.848 40.2057C37.848 37.6684 39.73 35.6352 42.4858 35.6352ZM42.5194 42.7599C43.8805 42.7599 44.9055 41.6676 44.9055 40.2057C44.9055 38.727 43.8805 37.6516 42.5194 37.6516C41.1079 37.6516 40.0661 38.727 40.0661 40.2057C40.0661 41.6844 41.1079 42.7599 42.5194 42.7599Z" fill="black"/>
<path d="M49.2381 44.4402V35.9712H51.3721V36.8114C51.9267 36.2401 52.6492 35.8032 53.607 35.8032C53.8927 35.8032 54.1447 35.8536 54.3464 35.9208V38.0213C54.0775 37.954 53.7918 37.9036 53.4054 37.9036C52.3635 37.9036 51.6914 38.475 51.3721 39.0127V44.4402H49.2381Z" fill="black"/>
<path d="M56.2326 44.4402V35.9712H58.3666V36.6098C58.9379 36.0552 59.6605 35.6352 60.7023 35.6352C61.7777 35.6352 62.7187 36.1057 63.2732 37.013C63.8782 36.2737 64.6847 35.6352 66.113 35.6352C67.8606 35.6352 69.2385 36.845 69.2385 39.2311V44.4402H67.0877V39.3151C67.0877 38.2901 66.5331 37.6516 65.5753 37.6516C64.6511 37.6516 64.147 38.2901 63.811 38.8614C63.8278 38.9791 63.8278 39.0967 63.8278 39.2311V44.4402H61.6769V39.3151C61.6769 38.2901 61.1224 37.6516 60.1646 37.6516C59.19 37.6516 58.6859 38.3741 58.3666 38.9118V44.4402H56.2326Z" fill="black"/>
<path d="M74.2282 44.6923C72.5311 44.6923 71.3716 43.7177 71.3716 42.1549C71.3716 40.8779 72.363 39.9201 74.1778 39.6176L76.7656 39.1807V38.9623C76.7656 38.0717 76.0934 37.5003 75.1188 37.5003C74.2954 37.5003 73.6569 37.8868 73.2032 38.5086L71.6405 37.3155C72.3967 36.2737 73.6401 35.6352 75.186 35.6352C77.6394 35.6352 78.8996 37.0971 78.8996 38.9623V44.4402H76.7656V43.6168C76.2279 44.2722 75.2197 44.6923 74.2282 44.6923ZM73.4889 42.0541C73.4889 42.6254 73.9426 42.9951 74.6651 42.9951C75.6397 42.9951 76.3455 42.5414 76.7656 41.8693V40.6762L74.7491 41.0123C73.8586 41.1635 73.4889 41.5332 73.4889 42.0541Z" fill="black"/>
<path d="M82.0491 41.3484V37.8868H80.4696V35.9712H82.0491V33.854H84.2V35.9712H86.7877V37.8868H84.2V41.3484C84.2 42.2894 84.7041 42.659 85.5442 42.659C86.1324 42.659 86.5189 42.5918 86.8045 42.4742V44.3394C86.3844 44.5242 85.8803 44.6082 85.1746 44.6082C83.0573 44.6082 82.0491 43.4152 82.0491 41.3484Z" fill="black"/>
<path d="M89.9423 34.4925C89.1862 34.4925 88.5476 33.854 88.5476 33.0978C88.5476 32.3417 89.1862 31.7031 89.9423 31.7031C90.6985 31.7031 91.3202 32.3417 91.3202 33.0978C91.3202 33.854 90.6985 34.4925 89.9423 34.4925ZM88.8669 44.4402V35.9712H91.0009V44.4402H88.8669Z" fill="black"/>
<path d="M97.7609 35.6352C100.517 35.6352 102.399 37.6684 102.399 40.2057C102.399 42.7431 100.517 44.7763 97.7609 44.7763C95.0052 44.7763 93.1232 42.7431 93.1232 40.2057C93.1232 37.6684 95.0052 35.6352 97.7609 35.6352ZM97.7946 42.7599C99.1556 42.7599 100.181 41.6676 100.181 40.2057C100.181 38.727 99.1556 37.6516 97.7946 37.6516C96.3831 37.6516 95.3412 38.727 95.3412 40.2057C95.3412 41.6844 96.3831 42.7599 97.7946 42.7599Z" fill="black"/>
<path d="M104.513 44.4402V35.9712H106.647V36.6434C107.235 36.072 108.025 35.6352 109.151 35.6352C110.983 35.6352 112.444 36.8954 112.444 39.3991V44.4402H110.294V39.4832C110.294 38.3573 109.655 37.6516 108.613 37.6516C107.538 37.6516 106.967 38.3741 106.647 38.9118V44.4402H104.513Z" fill="black"/>
<path d="M114.296 43.2136L115.708 41.9365C116.229 42.5918 116.851 43.0623 117.657 43.0623C118.346 43.0623 118.699 42.659 118.699 42.1549C118.699 40.6762 114.649 41.2307 114.649 38.2565C114.649 36.761 115.91 35.6352 117.674 35.6352C118.968 35.6352 120.144 36.2569 120.749 37.0803L119.337 38.3237C118.901 37.786 118.346 37.3491 117.691 37.3491C117.019 37.3491 116.699 37.7188 116.699 38.1557C116.699 39.6008 120.749 39.0967 120.749 42.0205C120.715 43.8017 119.287 44.7763 117.691 44.7763C116.178 44.7763 115.103 44.1714 114.296 43.2136Z" fill="black"/>
<path d="M129.547 33.4675C129.177 33.7027 128.891 33.9212 128.69 34.1228C128.488 34.3133 128.342 34.4869 128.253 34.6437C128.163 34.7894 128.107 34.9238 128.085 35.047C128.074 35.1591 128.068 35.2655 128.068 35.3663C128.068 35.5343 128.158 35.6184 128.337 35.6184C129.02 35.6184 129.362 35.9264 129.362 36.5425C129.362 37.3267 128.998 37.7188 128.27 37.7188C127.329 37.7188 126.858 37.1587 126.858 36.0384C126.858 35.3551 127.054 34.767 127.446 34.2741C127.85 33.7812 128.432 33.3387 129.194 32.9466L129.547 33.4675ZM132.336 33.4675C131.966 33.7027 131.681 33.9212 131.479 34.1228C131.289 34.3133 131.149 34.4869 131.059 34.6437C130.969 34.7894 130.913 34.9238 130.891 35.047C130.88 35.1591 130.874 35.2655 130.874 35.3663C130.874 35.5343 130.964 35.6184 131.143 35.6184C131.826 35.6184 132.168 35.9264 132.168 36.5425C132.168 37.3267 131.804 37.7188 131.076 37.7188C130.135 37.7188 129.664 37.1587 129.664 36.0384C129.664 35.3551 129.86 34.767 130.252 34.2741C130.645 33.7812 131.216 33.3387 131.966 32.9466L132.336 33.4675Z" fill="black"/>
<path d="M134.329 48.5739V35.9712H136.463V36.6602C137.118 36.0048 137.942 35.6352 139.101 35.6352C141.79 35.6352 143.403 37.7356 143.403 40.2057C143.403 42.6758 141.79 44.7763 139.101 44.7763C137.942 44.7763 137.118 44.4066 136.463 43.7513V48.5739H134.329ZM138.799 37.6516C137.807 37.6516 137.001 38.0885 136.463 38.8782V41.5332C137.034 42.3398 137.824 42.7599 138.799 42.7599C140.244 42.7599 141.185 41.6844 141.185 40.2057C141.185 38.727 140.244 37.6516 138.799 37.6516Z" fill="black"/>
<path d="M145.524 44.4402V35.9712H147.658V36.8114C148.213 36.2401 148.935 35.8032 149.893 35.8032C150.179 35.8032 150.431 35.8536 150.633 35.9208V38.0213C150.364 37.954 150.078 37.9036 149.692 37.9036C148.65 37.9036 147.978 38.475 147.658 39.0127V44.4402H145.524Z" fill="black"/>
<path d="M156.191 35.6352C158.946 35.6352 160.828 37.6684 160.828 40.2057C160.828 42.7431 158.946 44.7763 156.191 44.7763C153.435 44.7763 151.553 42.7431 151.553 40.2057C151.553 37.6684 153.435 35.6352 156.191 35.6352ZM156.224 42.7599C157.585 42.7599 158.61 41.6676 158.61 40.2057C158.61 38.727 157.585 37.6516 156.224 37.6516C154.813 37.6516 153.771 38.727 153.771 40.2057C153.771 41.6844 154.813 42.7599 156.224 42.7599Z" fill="black"/>
<path d="M165.027 37.1979C165.396 36.9626 165.682 36.7498 165.884 36.5593C166.085 36.3577 166.231 36.1841 166.32 36.0384C166.41 35.8816 166.46 35.7472 166.472 35.6352C166.494 35.5119 166.505 35.4055 166.505 35.3159C166.505 35.1254 166.416 35.0302 166.236 35.0302C165.542 35.0302 165.195 34.7278 165.195 34.1228C165.195 33.3499 165.559 32.9634 166.287 32.9634C167.228 32.9634 167.698 33.5123 167.698 34.6101C167.698 35.2935 167.497 35.8872 167.093 36.3913C166.701 36.8954 166.13 37.3435 165.379 37.7356L165.027 37.1979ZM162.22 37.1979C162.59 36.9626 162.876 36.7498 163.077 36.5593C163.279 36.3577 163.425 36.1841 163.514 36.0384C163.604 35.8816 163.654 35.7472 163.665 35.6352C163.688 35.5119 163.699 35.4055 163.699 35.3159C163.699 35.1254 163.609 35.0302 163.43 35.0302C162.747 35.0302 162.405 34.7278 162.405 34.1228C162.405 33.3499 162.769 32.9634 163.497 32.9634C164.438 32.9634 164.909 33.5123 164.909 34.6101C164.909 35.2935 164.713 35.8872 164.321 36.3913C163.94 36.8954 163.363 37.3435 162.59 37.7356L162.22 37.1979Z" fill="black"/>
<path d="M176.774 44.6923C175.077 44.6923 173.918 43.7177 173.918 42.1549C173.918 40.8779 174.909 39.9201 176.724 39.6176L179.312 39.1807V38.9623C179.312 38.0717 178.64 37.5003 177.665 37.5003C176.842 37.5003 176.203 37.8868 175.749 38.5086L174.187 37.3155C174.943 36.2737 176.186 35.6352 177.732 35.6352C180.186 35.6352 181.446 37.0971 181.446 38.9623V44.4402H179.312V43.6168C178.774 44.2722 177.766 44.6923 176.774 44.6923ZM176.035 42.0541C176.035 42.6254 176.489 42.9951 177.211 42.9951C178.186 42.9951 178.892 42.5414 179.312 41.8693V40.6762L177.295 41.0123C176.405 41.1635 176.035 41.5332 176.035 42.0541Z" fill="black"/>
<path d="M189.636 40.777V35.9712H191.787V40.6762C191.787 43.2136 190.309 44.7763 187.822 44.7763C185.335 44.7763 183.873 43.2136 183.873 40.6762V35.9712H186.024V40.777C186.024 42.0037 186.662 42.7599 187.838 42.7599C188.998 42.7599 189.636 42.0037 189.636 40.777Z" fill="black"/>
<path d="M194.987 41.3484V37.8868H193.407V35.9712H194.987V33.854H197.137V35.9712H199.725V37.8868H197.137V41.3484C197.137 42.2894 197.642 42.659 198.482 42.659C199.07 42.659 199.456 42.5918 199.742 42.4742V44.3394C199.322 44.5242 198.818 44.6082 198.112 44.6082C195.995 44.6082 194.987 43.4152 194.987 41.3484Z" fill="black"/>
<path d="M205.673 35.6352C208.429 35.6352 210.311 37.6684 210.311 40.2057C210.311 42.7431 208.429 44.7763 205.673 44.7763C202.917 44.7763 201.035 42.7431 201.035 40.2057C201.035 37.6684 202.917 35.6352 205.673 35.6352ZM205.707 42.7599C207.068 42.7599 208.093 41.6676 208.093 40.2057C208.093 38.727 207.068 37.6516 205.707 37.6516C204.295 37.6516 203.253 38.727 203.253 40.2057C203.253 41.6844 204.295 42.7599 205.707 42.7599Z" fill="black"/>
<path d="M218.004 40.777V35.9712H220.155V40.6762C220.155 43.2136 218.676 44.7763 216.189 44.7763C213.703 44.7763 212.241 43.2136 212.241 40.6762V35.9712H214.391V40.777C214.391 42.0037 215.03 42.7599 216.206 42.7599C217.366 42.7599 218.004 42.0037 218.004 40.777Z" fill="black"/>
<path d="M222.685 44.4402V35.9712H224.82V36.8114C225.374 36.2401 226.097 35.8032 227.054 35.8032C227.34 35.8032 227.592 35.8536 227.794 35.9208V38.0213C227.525 37.954 227.239 37.9036 226.853 37.9036C225.811 37.9036 225.139 38.475 224.82 39.0127V44.4402H222.685Z" fill="black"/>
<path d="M233.772 40.2057C233.772 37.7356 235.402 35.6352 238.074 35.6352C239.216 35.6352 240.04 35.988 240.695 36.6434V31.8376H242.846V44.4402H240.695V43.7681C240.04 44.4234 239.216 44.7763 238.074 44.7763C235.402 44.7763 233.772 42.6758 233.772 40.2057ZM236.007 40.2057C236.007 41.6844 236.931 42.7599 238.376 42.7599C239.334 42.7599 240.124 42.3566 240.695 41.5836V38.8278C240.124 38.0549 239.334 37.6516 238.376 37.6516C236.931 37.6516 236.007 38.727 236.007 40.2057Z" fill="black"/>
<path d="M253.369 43.0623C252.579 44.1209 251.269 44.7763 249.672 44.7763C246.665 44.7763 244.967 42.6758 244.967 40.2057C244.967 37.702 246.547 35.6352 249.32 35.6352C251.672 35.6352 253.218 37.2315 253.218 39.4496C253.218 39.9201 253.151 40.3569 253.084 40.6426H247.152C247.354 42.2221 248.328 42.8607 249.656 42.8607C250.58 42.8607 251.386 42.4574 251.84 41.8525L253.369 43.0623ZM249.269 37.3827C248.177 37.3827 247.454 37.9877 247.219 39.0967H251.118C251.084 38.2397 250.462 37.3827 249.269 37.3827Z" fill="black"/>
<path d="M260.706 41.3484V37.8868H259.127V35.9712H260.706V33.854H262.857V35.9712H265.445V37.8868H262.857V41.3484C262.857 42.2894 263.361 42.659 264.201 42.659C264.789 42.659 265.176 42.5918 265.462 42.4742V44.3394C265.042 44.5242 264.537 44.6082 263.832 44.6082C261.714 44.6082 260.706 43.4152 260.706 41.3484Z" fill="black"/>
<path d="M271.393 35.6352C274.149 35.6352 276.031 37.6684 276.031 40.2057C276.031 42.7431 274.149 44.7763 271.393 44.7763C268.637 44.7763 266.755 42.7431 266.755 40.2057C266.755 37.6684 268.637 35.6352 271.393 35.6352ZM271.426 42.7599C272.787 42.7599 273.812 41.6676 273.812 40.2057C273.812 38.727 272.787 37.6516 271.426 37.6516C270.015 37.6516 268.973 38.727 268.973 40.2057C268.973 41.6844 270.015 42.7599 271.426 42.7599Z" fill="black"/>
<path d="M279.22 34.4925C278.464 34.4925 277.826 33.854 277.826 33.0978C277.826 32.3417 278.464 31.7031 279.22 31.7031C279.977 31.7031 280.598 32.3417 280.598 33.0978C280.598 33.854 279.977 34.4925 279.22 34.4925ZM278.145 44.4402V35.9712H280.279V44.4402H278.145Z" fill="black"/>
<path d="M262.601 1.09186C269.898 1.09186 274.895 6.68022 274.895 13.2548C274.895 19.8293 269.898 25.4176 262.601 25.4176C255.27 25.4176 250.273 19.8293 250.273 13.2548C250.273 6.68022 255.27 1.09186 262.601 1.09186ZM262.601 19.9279C266.25 19.9279 268.879 17.1009 268.879 13.2548C268.879 9.37577 266.25 6.5816 262.601 6.5816C258.919 6.5816 256.289 9.40865 256.289 13.2548C256.289 17.1337 258.919 19.9279 262.601 19.9279Z" fill="#1212FF"/>
<path d="M233.889 24.7603C232.881 24.7603 232.063 23.9426 232.063 22.934V3.57565C232.063 2.56703 232.881 1.74939 233.889 1.74939H239.788C245.179 1.74939 248.499 4.41208 248.499 8.91563C248.499 10.9138 247.827 12.559 246.602 13.767C245.807 14.5513 245.471 15.8123 246.124 16.7184L249.833 21.8664C250.703 23.0744 249.84 24.7603 248.351 24.7603H246.06C245.448 24.7603 244.877 24.454 244.539 23.9444L239.562 16.4505C239.395 16.1997 239.114 16.049 238.813 16.049C238.317 16.049 237.914 16.4514 237.914 16.9477V22.934C237.914 23.9426 237.097 24.7603 236.088 24.7603H233.889ZM240.15 6.58167H239.741C238.732 6.58167 237.914 7.39932 237.914 8.40793V9.39046C237.914 10.3991 238.732 11.2167 239.741 11.2167H240.15C241.629 11.2167 242.484 10.2634 242.484 8.84989C242.484 7.53498 241.629 6.58167 240.15 6.58167Z" fill="#1212FF"/>
<path d="M214.551 24.7603C213.542 24.7603 212.725 23.9426 212.725 22.934V3.57565C212.725 2.56703 213.542 1.74939 214.551 1.74939H220.943C226.334 1.74939 229.654 4.41208 229.654 8.91563C229.654 13.3863 226.334 16.049 220.943 16.049H220.402C219.394 16.049 218.576 16.8666 218.576 17.8753V22.934C218.576 23.9426 217.758 24.7603 216.75 24.7603H214.551ZM221.272 6.58167H220.402C219.394 6.58167 218.576 7.39932 218.576 8.40793V9.39046C218.576 10.3991 219.394 11.2167 220.402 11.2167H221.272C222.751 11.2167 223.605 10.2634 223.605 8.84989C223.605 7.53498 222.751 6.58167 221.272 6.58167Z" fill="#1212FF"/>
<path d="M187.128 24.7603C186.119 24.7603 185.302 23.9426 185.302 22.934V3.57565C185.302 2.56703 186.119 1.74939 187.128 1.74939H197.676C198.685 1.74939 199.503 2.56703 199.503 3.57565V4.75541C199.503 5.76403 198.685 6.58167 197.676 6.58167H192.979C191.971 6.58167 191.153 7.39932 191.153 8.40793V8.79875C191.153 9.80737 191.971 10.625 192.979 10.625H196.362C197.37 10.625 198.188 11.4427 198.188 12.4513V13.631C198.188 14.6397 197.37 15.4573 196.362 15.4573H192.979C191.971 15.4573 191.153 16.2749 191.153 17.2836V18.1017C191.153 19.1103 191.971 19.928 192.979 19.928H197.676C198.685 19.928 199.503 20.7456 199.503 21.7542V22.934C199.503 23.9426 198.685 24.7603 197.676 24.7603H187.128Z" fill="#1212FF"/>
<path d="M170.134 24.7603C169.125 24.7603 168.308 23.9426 168.308 22.934V3.57565C168.308 2.56703 169.125 1.74939 170.134 1.74939H172.333C173.341 1.74939 174.159 2.56703 174.159 3.57565V17.6415C174.159 18.6501 174.977 19.4678 175.985 19.4678H180.682C181.691 19.4678 182.509 20.2854 182.509 21.294V22.934C182.509 23.9426 181.691 24.7603 180.682 24.7603H170.134Z" fill="#1212FF"/>
<path d="M150.951 24.7603C149.943 24.7603 149.125 23.9426 149.125 22.934V3.57565C149.125 2.56703 149.943 1.74939 150.951 1.74939H153.15C154.159 1.74939 154.976 2.56703 154.976 3.57565V22.934C154.976 23.9426 154.159 24.7603 153.15 24.7603H150.951Z" fill="black"/>
<path d="M139.373 16.0819V3.57565C139.373 2.56703 140.19 1.74939 141.199 1.74939H143.398C144.407 1.74939 145.224 2.56703 145.224 3.57565V15.523C145.224 21.6374 141.674 25.4177 135.592 25.4177C129.544 25.4177 125.994 21.6374 125.994 15.523V3.57565C125.994 2.56703 126.811 1.74939 127.82 1.74939H130.019C131.027 1.74939 131.845 2.56703 131.845 3.57565V16.0819C131.845 18.4487 133.193 19.928 135.625 19.928C138.025 19.928 139.373 18.4487 139.373 16.0819Z" fill="black"/>
<path d="M120.619 23.4782C122.263 25.056 123.709 25.6149 125.189 25.6149C126.014 25.6149 126.865 26.2319 126.865 27.0569V28.9891C126.865 29.7316 126.423 30.4347 125.698 30.5948C125.243 30.6953 124.757 30.743 124.137 30.743C121.31 30.743 118.844 29.5596 116.576 27.5215L114.667 25.8057C114.234 25.4171 113.644 25.2666 113.066 25.3325C112.545 25.3919 112.003 25.4176 111.448 25.4176C104.117 25.4176 99.1206 19.8293 99.1206 13.2548C99.1206 6.68022 104.117 1.09186 111.448 1.09186C118.746 1.09186 123.742 6.68022 123.742 13.2548C123.742 16.4017 122.593 19.3042 120.611 21.4982C120.099 22.0645 120.071 22.9474 120.619 23.4782ZM111.448 19.9279C115.097 19.9279 117.727 17.1009 117.727 13.2548C117.727 9.37577 115.097 6.5816 111.448 6.5816C107.766 6.5816 105.136 9.40865 105.136 13.2548C105.136 17.1337 107.766 19.9279 111.448 19.9279Z" fill="black"/>
<path d="M71.7642 7.04189C70.7556 7.04189 69.938 6.22425 69.938 5.21563V3.57565C69.938 2.56704 70.7556 1.74939 71.7642 1.74939H87.3751C88.3837 1.74939 89.2014 2.56703 89.2014 3.57565V5.21563C89.2014 6.22425 88.3837 7.04189 87.3751 7.04189H84.3216C83.313 7.04189 82.4954 7.85954 82.4954 8.86815V22.934C82.4954 23.9426 81.6777 24.7603 80.6691 24.7603H78.4703C77.4617 24.7603 76.644 23.9426 76.644 22.934V8.86815C76.644 7.85953 75.8264 7.04189 74.8178 7.04189H71.7642Z" fill="black"/>
<path d="M54.1205 22.1966C53.4728 21.4916 53.5146 20.3974 54.187 19.7158L54.764 19.131C55.5463 18.3381 56.8466 18.4483 57.7404 19.1131C58.7357 19.8535 59.8695 20.2895 60.9488 20.2895C62.2966 20.2895 63.1184 19.6978 63.1184 18.3829C63.1184 14.8655 52.9937 16.0161 52.9937 8.12661C52.9937 4.28051 56.2152 1.09186 60.8831 1.09186C63.9337 1.09186 65.6038 1.93946 67.3181 3.60051C67.9383 4.20144 67.9789 5.17123 67.4709 5.86959L66.617 7.04338C65.9225 7.9981 64.5375 8.02225 63.6114 7.29C62.749 6.60811 61.8505 6.18712 60.916 6.18712C59.7326 6.18712 58.9107 6.91032 58.9107 7.86363C58.9107 11.2824 69.0355 10.1318 69.0355 18.1857C68.9698 22.7878 65.3538 25.4176 61.0146 25.4176C57.5474 25.4176 55.7945 24.0186 54.1205 22.1966Z" fill="black"/>
<path d="M37.2511 24.7603C36.2425 24.7603 35.4248 23.9426 35.4248 22.934V3.57565C35.4248 2.56703 36.2424 1.74939 37.2511 1.74939H47.7995C48.8082 1.74939 49.6258 2.56703 49.6258 3.57565V4.75541C49.6258 5.76403 48.8082 6.58167 47.7995 6.58167H43.1024C42.0938 6.58167 41.2761 7.39932 41.2761 8.40793V8.79875C41.2761 9.80737 42.0938 10.625 43.1024 10.625H46.4846C47.4932 10.625 48.3109 11.4427 48.3109 12.4513V13.631C48.3109 14.6397 47.4932 15.4573 46.4846 15.4573H43.1024C42.0938 15.4573 41.2761 16.2749 41.2761 17.2836V18.1017C41.2761 19.1103 42.0938 19.928 43.1024 19.928H47.7995C48.8082 19.928 49.6258 20.7456 49.6258 21.7542V22.934C49.6258 23.9426 48.8082 24.7603 47.7995 24.7603H37.2511Z" fill="black"/>
<path d="M26.3806 8.88376C26.1376 9.63851 25.4352 10.1502 24.6423 10.1502H22.6848C21.4513 10.1502 20.5725 8.95257 20.9427 7.7759L22.9166 1.50088C23.1559 0.740121 23.8612 0.222626 24.6587 0.222626H26.6632C27.902 0.222626 28.7813 1.42966 28.4016 2.60873L26.3806 8.88376Z" fill="black"/>
<path d="M15.9798 18.5762C17.3232 17.8744 18.2404 16.8322 18.7701 15.6507C19.1964 14.6997 20.1365 13.9582 21.1641 14.1322L23.2168 14.4799C24.2099 14.6481 24.8933 15.5959 24.5732 16.5509C23.6372 19.3436 21.6121 21.8277 18.5215 23.4421C12.024 26.8362 5.00777 24.1964 1.96372 18.369C-1.08032 12.5417 0.76104 5.27491 7.25856 1.8808C10.3447 0.268704 13.5356 0.0239768 16.3508 0.830231C17.3199 1.10777 17.7135 2.20912 17.288 3.12296L16.4053 5.01867C15.964 5.9664 14.8155 6.31693 13.7884 6.12168C12.5263 5.88176 11.1584 6.03723 9.80034 6.74666C6.53701 8.45132 5.51501 12.1747 7.29577 15.5837C9.09176 19.0219 12.7164 20.2809 15.9798 18.5762Z" fill="black"/>
<path d="M289.711 19.1337C291.248 19.1339 292.614 20.4667 292.614 22.037C292.614 23.6074 291.248 24.9401 289.711 24.9403C288.11 24.9403 286.776 23.6075 286.776 22.037C286.776 20.4666 288.111 19.1337 289.711 19.1337ZM291.059 1.21866C294.894 1.21866 298.361 3.85549 298.361 8.00674C298.361 11.4826 295.955 13.8154 292.507 14.7226C291.924 14.8763 291.475 15.3531 291.419 15.9423C291.345 16.7295 290.684 17.331 289.893 17.331H289.677C288.766 17.331 288.004 16.6387 287.916 15.7314L287.757 14.1093C287.635 12.8425 288.564 11.7514 289.797 11.5048C291.03 11.2584 292.009 10.9001 292.679 10.3476C293.343 9.80008 293.71 9.05451 293.71 8.00674C293.71 6.40448 292.482 5.2919 290.867 5.2919C289.802 5.29194 288.999 5.65175 288.249 6.371C287.418 7.16723 286.164 7.51221 285.156 6.89249C284.122 6.25709 283.765 4.85738 284.61 3.94424C286.268 2.15325 288.369 1.21876 291.059 1.21866Z" fill="black" stroke="black" stroke-width="0.219902"/>
</svg>
